<?xml version="1.0" encoding="UTF-8" standalone="no"?>
<!-- Created with Inkscape (http://www.inkscape.org/) -->

<svg
   xmlns:dc="http://purl.org/dc/elements/1.1/"
   xmlns:cc="http://creativecommons.org/ns#"
   xmlns:rdf="http://www.w3.org/1999/02/22-rdf-syntax-ns#"
   xmlns:svg="http://www.w3.org/2000/svg"
   xmlns="http://www.w3.org/2000/svg"
   xmlns:xlink="http://www.w3.org/1999/xlink"
   xmlns:sodipodi="http://sodipodi.sourceforge.net/DTD/sodipodi-0.dtd"
   xmlns:inkscape="http://www.inkscape.org/namespaces/inkscape"
   version="1.0"
   width="48"
   height="48"
   id="svg11300"
   inkscape:version="0.48.0 r9654"
   sodipodi:docname="applications-roleplaying.svg">
  <metadata
     id="metadata81">
    <rdf:RDF>
      <cc:Work
         rdf:about="">
        <dc:format>image/svg+xml</dc:format>
        <dc:type
           rdf:resource="http://purl.org/dc/dcmitype/StillImage" />
        <dc:title></dc:title>
      </cc:Work>
    </rdf:RDF>
  </metadata>
  <sodipodi:namedview
     pagecolor="#ffffff"
     bordercolor="#666666"
     borderopacity="1"
     objecttolerance="10"
     gridtolerance="10"
     guidetolerance="10"
     inkscape:pageopacity="0"
     inkscape:pageshadow="2"
     inkscape:window-width="640"
     inkscape:window-height="480"
     id="namedview79"
     showgrid="false"
     inkscape:zoom="6.3125"
     inkscape:cx="24"
     inkscape:cy="24"
     inkscape:window-x="0"
     inkscape:window-y="0"
     inkscape:window-maximized="0"
     inkscape:current-layer="g3912" />
  <defs
     id="defs3">
    <linearGradient
       id="linearGradient3747">
      <stop
         id="stop3749"
         style="stop-color:#2a2a2a;stop-opacity:1"
         offset="0" />
      <stop
         id="stop3751"
         style="stop-color:#2a2a2a;stop-opacity:0"
         offset="1" />
    </linearGradient>
    <linearGradient
       id="linearGradient3739">
      <stop
         id="stop3741"
         style="stop-color:#2a2a2a;stop-opacity:1"
         offset="0" />
      <stop
         id="stop3743"
         style="stop-color:#2a2a2a;stop-opacity:0"
         offset="1" />
    </linearGradient>
    <linearGradient
       id="linearGradient3785">
      <stop
         id="stop3787"
         style="stop-color:#bdbdbd;stop-opacity:1"
         offset="0" />
      <stop
         id="stop3789"
         style="stop-color:#8c8c8c;stop-opacity:1"
         offset="1" />
    </linearGradient>
    <linearGradient
       id="linearGradient6954">
      <stop
         id="stop6960"
         style="stop-color:#f5f5f5;stop-opacity:1"
         offset="0" />
      <stop
         id="stop6962"
         style="stop-color:#d2d2d2;stop-opacity:1"
         offset="1" />
    </linearGradient>
    <linearGradient
       id="linearGradient3341">
      <stop
         id="stop3343"
         style="stop-color:#ffffff;stop-opacity:1"
         offset="0" />
      <stop
         id="stop3345"
         style="stop-color:#ffffff;stop-opacity:0"
         offset="1" />
    </linearGradient>
    <linearGradient
       id="linearGradient5060">
      <stop
         id="stop5062"
         style="stop-color:#000000;stop-opacity:1"
         offset="0" />
      <stop
         id="stop5064"
         style="stop-color:#000000;stop-opacity:0"
         offset="1" />
    </linearGradient>
    <linearGradient
       x1="31"
       y1="45"
       x2="31"
       y2="25"
       id="linearGradient3783"
       xlink:href="#linearGradient2490"
       gradientUnits="userSpaceOnUse" />
    <radialGradient
       cx="26.375898"
       cy="12.31301"
       r="8"
       fx="26.375898"
       fy="12.31301"
       id="radialGradient3805"
       xlink:href="#linearGradient3993"
       gradientUnits="userSpaceOnUse"
       gradientTransform="matrix(1.640165,-0.1325824,0.12811381,1.5848844,-18.396351,-5.2274259)" />
    <radialGradient
       cx="24.999998"
       cy="28.659998"
       r="16"
       fx="24.999998"
       fy="28.659998"
       id="radialGradient3813"
       xlink:href="#linearGradient3993"
       gradientUnits="userSpaceOnUse"
       gradientTransform="matrix(1.3125,0,0,0.37326701,-7.812498,20.302168)" />
    <linearGradient
       x1="32"
       y1="45"
       x2="33"
       y2="5"
       id="linearGradient3821"
       xlink:href="#linearGradient2490"
       gradientUnits="userSpaceOnUse" />
    <radialGradient
       cx="32"
       cy="41.5"
       r="21"
       fx="32"
       fy="41.5"
       id="radialGradient3831"
       xlink:href="#linearGradient5060"
       gradientUnits="userSpaceOnUse"
       gradientTransform="matrix(1,0,0,0.35714286,0,26.678571)" />
    <radialGradient
       cx="30"
       cy="33.1875"
       r="4.6875"
       fx="30"
       fy="33.1875"
       id="radialGradient3844"
       xlink:href="#linearGradient5060"
       gradientUnits="userSpaceOnUse"
       gradientTransform="matrix(1.5279732,-7.0647448e-7,2.1308638e-7,0.46086628,-15.839202,14.705021)" />
    <linearGradient
       x1="38"
       y1="39"
       x2="43"
       y2="38.599998"
       id="linearGradient3858"
       xlink:href="#linearGradient5060"
       gradientUnits="userSpaceOnUse" />
    <linearGradient
       x1="22"
       y1="39"
       x2="17"
       y2="37.4375"
       id="linearGradient3866"
       xlink:href="#linearGradient5060"
       gradientUnits="userSpaceOnUse" />
    <linearGradient
       x1="24.786562"
       y1="53.869164"
       x2="24.87495"
       y2="83.5"
       id="linearGradient3892"
       xlink:href="#linearGradient3341"
       gradientUnits="userSpaceOnUse" />
    <linearGradient
       x1="29.999992"
       y1="3.0410755"
       x2="29.999992"
       y2="27.956825"
       id="linearGradient3910"
       xlink:href="#linearGradient3341"
       gradientUnits="userSpaceOnUse" />
    <radialGradient
       cx="32"
       cy="41.5"
       r="21"
       fx="32"
       fy="41.5"
       id="radialGradient4174"
       xlink:href="#linearGradient5060"
       gradientUnits="userSpaceOnUse"
       gradientTransform="matrix(1,0,0,0.35714286,0,26.678571)" />
    <radialGradient
       cx="30"
       cy="33.1875"
       r="4.6875"
       fx="30"
       fy="33.1875"
       id="radialGradient4191"
       xlink:href="#linearGradient5060"
       gradientUnits="userSpaceOnUse"
       gradientTransform="matrix(1.1408868,-4.7098295e-7,1.5910451e-7,0.30724416,-19.726607,16.803349)" />
    <linearGradient
       x1="22"
       y1="39"
       x2="17"
       y2="37.4375"
       id="linearGradient4197"
       xlink:href="#linearGradient5060"
       gradientUnits="userSpaceOnUse"
       gradientTransform="matrix(0.77777778,0,0,0.76190476,-8.3222223,4.5857142)" />
    <radialGradient
       cx="26.375898"
       cy="12.31301"
       r="8"
       fx="26.375898"
       fy="12.31301"
       id="radialGradient4200"
       xlink:href="#linearGradient6954"
       gradientUnits="userSpaceOnUse"
       gradientTransform="matrix(1.0934492,-0.09109992,0.08540967,1.0890047,-17.764411,2.1289516)" />
    <linearGradient
       x1="30"
       y1="5"
       x2="30"
       y2="44.678879"
       id="linearGradient4202"
       xlink:href="#linearGradient3785"
       gradientUnits="userSpaceOnUse"
       gradientTransform="matrix(0.66667035,0,0,0.68711932,-5.50011,5.720817)" />
    <radialGradient
       cx="24.999998"
       cy="28.659998"
       r="16"
       fx="24.999998"
       fy="28.659998"
       id="radialGradient4205"
       xlink:href="#linearGradient6954"
       gradientUnits="userSpaceOnUse"
       gradientTransform="matrix(1.0208333,0,0,0.28439391,-14.854165,20.063557)" />
    <linearGradient
       x1="30"
       y1="26.40678"
       x2="30"
       y2="45"
       id="linearGradient4207"
       xlink:href="#linearGradient3785"
       gradientUnits="userSpaceOnUse"
       gradientTransform="matrix(0.77777778,0,0,0.76190476,-8.7777778,4.5952382)" />
    <linearGradient
       x1="29.250004"
       y1="-1.049042"
       x2="29.250004"
       y2="29.513336"
       id="linearGradient4236"
       xlink:href="#linearGradient3341"
       gradientUnits="userSpaceOnUse"
       gradientTransform="matrix(0.66667035,0,0,0.68711932,-5.50011,5.720817)" />
    <linearGradient
       x1="29.285715"
       y1="14.96875"
       x2="29.285715"
       y2="45.15625"
       id="linearGradient4248"
       xlink:href="#linearGradient3341"
       gradientUnits="userSpaceOnUse"
       gradientTransform="matrix(0.77777778,0,0,0.76190476,-8.7777778,4.5952382)" />
    <linearGradient
       id="linearGradient3993">
      <stop
         id="stop3995"
         style="stop-color:#a3c0d0;stop-opacity:1"
         offset="0" />
      <stop
         id="stop4001"
         style="stop-color:#427da1;stop-opacity:1"
         offset="1" />
    </linearGradient>
    <linearGradient
       id="linearGradient2490">
      <stop
         id="stop2492"
         style="stop-color:#2e4a5a;stop-opacity:1"
         offset="0" />
      <stop
         id="stop2494"
         style="stop-color:#6e8796;stop-opacity:1"
         offset="1" />
    </linearGradient>
    <linearGradient
       x1="36"
       y1="9.5"
       x2="40"
       y2="9.5"
       id="linearGradient3713"
       xlink:href="#linearGradient2490"
       gradientUnits="userSpaceOnUse"
       gradientTransform="translate(-1,0.5)" />
    <linearGradient
       x1="35.5"
       y1="9.5"
       x2="40.5"
       y2="9.5"
       id="linearGradient3721"
       xlink:href="#linearGradient3993"
       gradientUnits="userSpaceOnUse"
       gradientTransform="translate(-1,0.5)" />
    <linearGradient
       x1="35.5"
       y1="9.5"
       x2="40.5"
       y2="9.5"
       id="linearGradient3725"
       xlink:href="#linearGradient3993"
       gradientUnits="userSpaceOnUse"
       gradientTransform="matrix(-1,0,0,1,61.044074,0.5)" />
    <linearGradient
       x1="36"
       y1="9.5"
       x2="40"
       y2="9.5"
       id="linearGradient3727"
       xlink:href="#linearGradient2490"
       gradientUnits="userSpaceOnUse"
       gradientTransform="matrix(-1,0,0,1,61.044074,0.5)" />
    <linearGradient
       x1="30"
       y1="10"
       x2="34"
       y2="10"
       id="linearGradient3745"
       xlink:href="#linearGradient3739"
       gradientUnits="userSpaceOnUse" />
    <linearGradient
       x1="30"
       y1="11"
       x2="26"
       y2="11"
       id="linearGradient3753"
       xlink:href="#linearGradient3747"
       gradientUnits="userSpaceOnUse" />
    <radialGradient
       cx="24.45439"
       cy="46.869949"
       r="19.61445"
       fx="24.45439"
       fy="46.869949"
       id="radialGradient3015"
       xlink:href="#linearGradient3437"
       gradientUnits="userSpaceOnUse"
       gradientTransform="matrix(0.5098238,0,0,0.1027415,24.532483,41.169295)" />
    <linearGradient
       id="linearGradient3437">
      <stop
         id="stop3439"
         style="stop-color:black;stop-opacity:1"
         offset="0" />
      <stop
         id="stop3441"
         style="stop-color:black;stop-opacity:0"
         offset="1" />
    </linearGradient>
    <linearGradient
       x1="6.72682"
       y1="32.161697"
       x2="40.938126"
       y2="32.161697"
       id="linearGradient3101"
       xlink:href="#linearGradient2411"
       gradientUnits="userSpaceOnUse"
       gradientTransform="matrix(0.4857987,0,0,0.5667573,25.342223,20.281588)" />
    <linearGradient
       id="linearGradient2411">
      <stop
         id="stop2413"
         style="stop-color:#fee7b1;stop-opacity:1"
         offset="0" />
      <stop
         id="stop2419"
         style="stop-color:#ebd4b4;stop-opacity:1"
         offset="0.25796592" />
      <stop
         id="stop2421"
         style="stop-color:#c8a775;stop-opacity:1"
         offset="0.50796592" />
      <stop
         id="stop2423"
         style="stop-color:#b0935b;stop-opacity:1"
         offset="0.74009573" />
      <stop
         id="stop2415"
         style="stop-color:#fcebbf;stop-opacity:1"
         offset="1" />
    </linearGradient>
    <linearGradient
       x1="10.907269"
       y1="25.002281"
       x2="30.875446"
       y2="36.127281"
       id="linearGradient3098"
       xlink:href="#linearGradient9845-9"
       gradientUnits="userSpaceOnUse"
       gradientTransform="matrix(0.4541292,0,0,0.5078849,26.107473,23.044235)" />
    <linearGradient
       id="linearGradient9845-9">
      <stop
         id="stop9847-6"
         style="stop-color:white;stop-opacity:1"
         offset="0" />
      <stop
         id="stop9849-1"
         style="stop-color:white;stop-opacity:0.49484536"
         offset="1" />
    </linearGradient>
    <linearGradient
       x1="24.875"
       y1="21"
       x2="24.75"
       y2="17"
       id="linearGradient3095"
       xlink:href="#linearGradient5881-0"
       gradientUnits="userSpaceOnUse"
       gradientTransform="matrix(0.4705882,0,0,0.807484,25.705797,18.848644)" />
    <linearGradient
       id="linearGradient5881-0">
      <stop
         id="stop5883-4"
         style="stop-color:#d6c8a7;stop-opacity:1"
         offset="0" />
      <stop
         id="stop5885-2"
         style="stop-color:#d0bd99;stop-opacity:1"
         offset="1" />
    </linearGradient>
    <linearGradient
       x1="21.941509"
       y1="21.550869"
       x2="21.941509"
       y2="18.037588"
       id="linearGradient3092"
       xlink:href="#linearGradient12071-2"
       gradientUnits="userSpaceOnUse"
       gradientTransform="matrix(0.4545455,0,0,0.2515938,26.090824,30.134459)" />
    <linearGradient
       id="linearGradient12071-2">
      <stop
         id="stop12073-2"
         style="stop-color:white;stop-opacity:1"
         offset="0" />
      <stop
         id="stop12075-0"
         style="stop-color:white;stop-opacity:0"
         offset="1" />
    </linearGradient>
    <filter
       x="-0.49411765"
       y="-0.082352944"
       width="1.9882354"
       height="1.1647059"
       color-interpolation-filters="sRGB"
       id="filter5957-5">
      <feGaussianBlur
         stdDeviation="0.69878785"
         id="feGaussianBlur5959-5" />
    </filter>
    <radialGradient
       cx="15.9375"
       cy="20.3125"
       r="3.3125"
       fx="15.9375"
       fy="20.3125"
       id="radialGradient3088"
       xlink:href="#linearGradient6075-2"
       gradientUnits="userSpaceOnUse"
       gradientTransform="matrix(0.7547171,0,0,0.3773584,20.471614,25.622258)" />
    <linearGradient
       id="linearGradient6075-2">
      <stop
         id="stop6077-9"
         style="stop-color:black;stop-opacity:1"
         offset="0" />
      <stop
         id="stop6079-0"
         style="stop-color:black;stop-opacity:0"
         offset="1" />
    </linearGradient>
    <radialGradient
       cx="15.9375"
       cy="20.3125"
       r="3.3125"
       fx="15.9375"
       fy="20.3125"
       id="radialGradient3085"
       xlink:href="#linearGradient6075-2"
       gradientUnits="userSpaceOnUse"
       gradientTransform="matrix(0.7547175,0,0,0.3773584,29.471608,25.622258)" />
    <linearGradient
       id="linearGradient3135">
      <stop
         id="stop3137"
         style="stop-color:black;stop-opacity:1"
         offset="0" />
      <stop
         id="stop3139"
         style="stop-color:black;stop-opacity:0"
         offset="1" />
    </linearGradient>
    <linearGradient
       x1="10.650842"
       y1="2.9136841"
       x2="27.192274"
       y2="17.470011"
       id="linearGradient3082"
       xlink:href="#linearGradient10591"
       gradientUnits="userSpaceOnUse"
       gradientTransform="matrix(0.4093677,0,0,0.4715246,27.146394,22.227323)" />
    <linearGradient
       id="linearGradient10591">
      <stop
         id="stop10593"
         style="stop-color:#cad0c6;stop-opacity:1"
         offset="0" />
      <stop
         id="stop10599"
         style="stop-color:#eaece9;stop-opacity:1"
         offset="0.5" />
      <stop
         id="stop10595"
         style="stop-color:#c5cbc0;stop-opacity:1"
         offset="1" />
    </linearGradient>
    <linearGradient
       x1="35.004684"
       y1="14.849737"
       x2="33.004314"
       y2="14.849737"
       id="linearGradient3074"
       xlink:href="#linearGradient6227"
       gradientUnits="userSpaceOnUse"
       gradientTransform="translate(1.6824037,1.125)" />
    <linearGradient
       id="linearGradient6227">
      <stop
         id="stop6229"
         style="stop-color:black;stop-opacity:1"
         offset="0" />
      <stop
         id="stop6231"
         style="stop-color:black;stop-opacity:0"
         offset="1" />
    </linearGradient>
    <filter
       x="-0.24242526"
       y="-0.047579072"
       width="1.4848505"
       height="1.0951581"
       color-interpolation-filters="sRGB"
       id="filter6251">
      <feGaussianBlur
         stdDeviation="0.24444548"
         id="feGaussianBlur6253" />
    </filter>
    <linearGradient
       x1="32.128025"
       y1="13.789077"
       x2="35.020981"
       y2="13.789077"
       id="linearGradient3076"
       xlink:href="#linearGradient6227"
       gradientUnits="userSpaceOnUse"
       gradientTransform="translate(-19.532826,1.7437184)" />
    <linearGradient
       id="linearGradient3153">
      <stop
         id="stop3155"
         style="stop-color:black;stop-opacity:1"
         offset="0" />
      <stop
         id="stop3157"
         style="stop-color:black;stop-opacity:0"
         offset="1" />
    </linearGradient>
    <filter
       x="-0.24242526"
       y="-0.047579072"
       width="1.4848505"
       height="1.0951581"
       color-interpolation-filters="sRGB"
       id="filter3159">
      <feGaussianBlur
         stdDeviation="0.24444548"
         id="feGaussianBlur3161" />
    </filter>
    <filter
       color-interpolation-filters="sRGB"
       id="filter5745">
      <feGaussianBlur
         stdDeviation="0.8362597"
         id="feGaussianBlur5747" />
    </filter>
  </defs>
  <g
     id="g4280">
    <g
       id="g4271">
      <path
         d="m 53,41.5 a 21,7.5 0 1 1 -42,0 21,7.5 0 1 1 42,0 z"
         transform="matrix(0.61904762,0,0,0.53333333,-5.8095238,13.866666)"
         id="path3823-4"
         style="opacity:0.7;fill:url(#radialGradient4174);fill-opacity:1;stroke:none" />
      <path
         d="m 11.055556,20.214286 c 0.357945,1.658461 0.557738,2.912967 0.267361,4.571428 -2.2638726,1.839906 -8.0538177,2.666667 -8.0451392,4.571429 L 2.5,35.071429 C 2.5,36.964976 7.8974558,38.5 14.555556,38.5 c 6.6581,0 12.055555,-1.535024 12.055555,-3.428571 L 25.833333,29.357143 C 25.824133,27.726923 20,26.690476 17.763888,24.785714 17.572886,23.24641 17.72493,21.75359 18.055555,20.214286 l -6.999999,0 z"
         id="path3766-9"
         style="fill:url(#radialGradient4205);fill-opacity:1;stroke:url(#linearGradient4207);stroke-width:1;stroke-miterlimit:4;stroke-opacity:1;stroke-dasharray:none" />
      <path
         d="m 12.1875,21.1875 c 0.202188,1.213955 0.333363,2.381475 0.09375,3.75 a 0.97459995,0.97459995 0 0 1 -0.34375,0.59375 c -1.391883,1.131218 -3.4352612,1.747805 -5.125,2.40625 -0.8448694,0.329223 -1.6036508,0.671215 -2.0625,0.96875 -0.4588492,0.297535 -0.4999242,0.45413 -0.5,0.4375 a 0.97459995,0.97459995 0 0 1 0,0.125 L 3.46875,35.0625 c 0,0.0098 0.056733,0.211878 0.53125,0.53125 0.4745172,0.319372 1.2835406,0.675297 2.3125,0.96875 2.0579188,0.586906 4.996276,0.96875 8.25,0.96875 3.253724,0 6.192081,-0.381844 8.25,-0.96875 1.028959,-0.293453 1.837983,-0.649378 2.3125,-0.96875 0.474517,-0.319372 0.53125,-0.52142 0.53125,-0.53125 L 24.875,29.46875 a 0.97459995,0.97459995 0 0 1 0,-0.09375 c 0.0076,0.02268 0.0072,0.07494 -0.03125,0.03125 C 24.77972,29.33343 24.616422,29.178014 24.375,29.03125 23.892155,28.737721 23.141117,28.407257 22.28125,28.0625 20.561516,27.372985 18.496469,26.699493 17.125,25.53125 a 0.97459995,0.97459995 0 0 1 -0.34375,-0.625 c -0.158591,-1.278099 0.05632,-2.502739 0.25,-3.71875 l -4.84375,0 z"
         id="path4244"
         style="opacity:0.6;fill:none;stroke:url(#linearGradient4248);stroke-width:1;stroke-miterlimit:4;stroke-opacity:1;stroke-dasharray:none" />
      <path
         d="m 14.499999,9.4999737 c -2.761438,0 -5.0000264,2.1534363 -5.0000264,4.8098343 0.021642,0.983079 0.1030478,2.150942 0.6666704,4.809835 0.333335,1.030676 3.306526,3.978798 3.333351,4.322357 0.646451,0.343559 1.666677,0.343559 2.333346,0 0,-0.343559 2.666681,-3.291681 3.000017,-4.322357 0.634253,-2.763383 0.632651,-3.779158 0.66667,-4.809835 0,-2.656398 -2.238588,-4.8098343 -5.000028,-4.8098343 z"
         id="path3764-4"
         style="fill:url(#radialGradient4200);fill-opacity:1;stroke:url(#linearGradient4202);stroke-width:0.99994528;stroke-miterlimit:4;stroke-opacity:1;stroke-dasharray:none" />
      <path
         d="M 8.0111111,37.5 C 6.1737285,35.989756 7.0498796,32.636868 7.2333333,30.490476 6.4555555,32.014286 6.4555555,36.585714 4.9,36.585714 5.9598077,36.935089 7.0385474,37.321553 8.0111111,37.5 z"
         id="path3848-2"
         style="opacity:0.3;fill:url(#linearGradient4197);fill-opacity:1;stroke:none" />
      <path
         d="m 11,25 c 0.512439,1.163171 1.880785,2 3.5,2 1.619215,0 2.987561,-0.836829 3.5,-2 l -7,0 z"
         id="path3833-8"
         style="opacity:0.2;fill:url(#radialGradient4191);fill-opacity:1;stroke:none" />
      <path
         d="m 14.5,10.46875 c -2.253262,0 -4.013592,1.70679 -4.03125,3.8125 -8.9e-5,0.01056 0,0.02067 0,0.03125 0.0211,0.936432 0.09351,2.035092 0.625,4.5625 0.01529,0.02389 0.179538,0.342189 0.46875,0.71875 0.303819,0.395579 0.703092,0.864829 1.09375,1.3125 0.390658,0.447671 0.791542,0.894208 1.09375,1.25 0.140048,0.164879 0.239135,0.297842 0.34375,0.4375 0.298111,0.08926 0.791648,0.09006 1.125,0 0.08512,-0.127102 0.171603,-0.260225 0.28125,-0.40625 0.269296,-0.358641 0.618,-0.801199 0.96875,-1.25 0.35075,-0.448801 0.691218,-0.914473 0.96875,-1.3125 0.25674,-0.368209 0.434496,-0.644559 0.46875,-0.71875 0.0041,-0.01799 -0.0041,-0.01342 0,-0.03125 0.605528,-2.65086 0.591265,-3.520249 0.625,-4.5625 0,-0.01058 8.9e-5,-0.02069 0,-0.03125 -0.01766,-2.10571 -1.777986,-3.8125 -4.03125,-3.8125 z"
         id="path4234"
         style="opacity:0.6;fill:none;stroke:url(#linearGradient4236);stroke-width:0.99994528;stroke-miterlimit:4;stroke-opacity:1;stroke-dasharray:none" />
    </g>
    <g
       id="g3912">
      <path
         d="m 53,41.5 a 21,7.5 0 1 1 -42,0 21,7.5 0 1 1 42,0 z"
         transform="matrix(0.85714286,0,0,0.8,2.5714285,7.8)"
         id="path3823"
         style="opacity:0.7;fill:url(#radialGradient3831);fill-opacity:1;stroke:none" />
      <path
         d="m 25.5,20.5 c 0.460215,2.17673 0.717092,3.82327 0.34375,6 C 22.933057,28.914876 15.488842,30 15.5,32.5 l -1,7.5 c 0,2.485281 6.939586,4.5 15.5,4.5 8.560414,0 15.5,-2.014719 15.5,-4.5 l -1,-7.5 C 44.48813,30.360337 37,29 34.125,26.5 33.879426,24.479663 34.07491,22.520337 34.5,20.5 l -9,0 z"
         id="path3766"
         style="fill:url(#radialGradient3813);fill-opacity:1;stroke:url(#linearGradient3783);stroke-width:1;stroke-miterlimit:4;stroke-opacity:1;stroke-dasharray:none" />
      <path
         d="m 22.53125,61 c 0.30464,1.690349 0.51076,3.271519 0.1875,5.15625 a 1.0027361,1.0027361 0 0 1 -0.375,0.625 c -1.721814,1.428515 -4.345384,2.254348 -6.53125,3.125 -1.092933,0.435326 -2.065851,0.86976 -2.6875,1.28125 -0.621649,0.41149 -0.750567,0.685398 -0.75,0.8125 a 1.0027361,1.0027361 0 0 1 0,0.125 l -1,7.375 c 0,0.003 -1.1e-4,0.02807 0,0.03125 0.0055,0.158344 0.150083,0.473017 0.78125,0.90625 0.643832,0.441926 1.694345,0.893116 3.03125,1.28125 C 17.861311,82.495018 21.673451,83 25.875,83 c 4.201549,0 8.013689,-0.504982 10.6875,-1.28125 1.336905,-0.388134 2.387418,-0.839324 3.03125,-1.28125 0.631167,-0.433233 0.77575,-0.747906 0.78125,-0.90625 l 0,-0.03125 -1,-7.375 a 1.0027361,1.0027361 0 0 1 0,-0.125 c 1.37e-4,0.02464 0.01573,0.0028 -0.09375,-0.125 -0.109475,-0.12777 -0.334408,-0.299018 -0.65625,-0.5 -0.643684,-0.401965 -1.645672,-0.857472 -2.75,-1.3125 C 33.666343,69.152443 31.038552,68.22374 29.34375,66.75 A 1.0027361,1.0027361 0 0 1 29,66.125 C 28.788112,64.3818 28.942542,62.684293 29.21875,61 l -6.6875,0 z"
         transform="translate(4.1250489,-39.5)"
         id="path3894"
         style="opacity:0.6;fill:none;stroke:url(#linearGradient3892);stroke-width:1;stroke-miterlimit:4;stroke-opacity:1;stroke-dasharray:none" />
      <path
         d="m 30,5.5 c -4.142136,0 -7.5,3.134007 -7.5,7 0.03246,1.430727 0.154571,3.130379 1,7 0.5,1.5 4.95976,5.5 5,6 0.96967,0.5 2.5,0.5 3.5,0 0,-0.5 4,-4.5 4.5,-6 0.951375,-4.021691 0.948972,-5.5 1,-7 0,-3.865993 -3.357864,-7 -7.5,-7 z"
         id="path3764"
         style="fill:url(#radialGradient3805);fill-opacity:1;stroke:url(#linearGradient3821);stroke-width:1;stroke-miterlimit:4;stroke-opacity:1;stroke-dasharray:none" />
      <path
         d="m 21,43.2 c -2.362349,-1.982195 -1.235869,-6.38286 -1,-9.2 -1,2 -1,8 -3,8 1.36261,0.458554 2.749561,0.965789 4,1.2 z"
         id="path3848"
         style="opacity:0.3;fill:url(#linearGradient3866);fill-opacity:1;stroke:none" />
      <path
         d="m 39,43.2 c 2.350047,-1.743746 1.156723,-6.485917 1,-9.2 1,2 1,8 3,8 -1.36261,0.458554 -2.749561,0.965789 -4,1.2 z"
         id="path3850"
         style="opacity:0.3;fill:url(#linearGradient3858);fill-opacity:1;stroke:none" />
      <path
         d="m 25.3125,27 c 0.686303,1.744757 2.518909,3 4.6875,3 2.168591,0 4.001197,-1.255243 4.6875,-3 l -9.375,0 z"
         id="path3833"
         style="opacity:0.2;fill:url(#radialGradient3844);fill-opacity:1;stroke:none" />
      <path
         d="m 30,6.53125 c -3.613647,0 -6.450433,2.6790117 -6.46875,5.9375 1.42e-4,0.0063 -1.45e-4,0.02499 0,0.03125 0.03183,1.373874 0.156427,2.981433 0.96875,6.71875 0.04059,0.09664 0.334757,0.582911 0.78125,1.125 0.460685,0.55932 1.039787,1.193866 1.625,1.8125 0.585213,0.618634 1.177291,1.232474 1.625,1.71875 0.223855,0.243138 0.405333,0.457698 0.5625,0.65625 0.01424,0.01799 0.01751,0.04473 0.03125,0.0625 0.579909,0.227936 1.589912,0.230436 2.21875,0 0.140288,-0.203603 0.300098,-0.442723 0.5,-0.6875 0.399803,-0.489555 0.910744,-1.067787 1.4375,-1.6875 0.526756,-0.619713 1.078845,-1.28221 1.5,-1.84375 0.400306,-0.533741 0.657608,-0.976665 0.71875,-1.125 0.0033,-0.01388 -0.0033,-0.01744 0,-0.03125 0.922531,-3.909312 0.918236,-5.212314 0.96875,-6.71875 0,-0.01056 5.9e-5,-0.0207 0,-0.03125 C 36.450433,9.2102617 33.613647,6.53125 30,6.53125 z"
         transform="matrix(1.0045203,0,0,1.0033814,-0.1356006,-0.05135866)"
         id="path3906"
         style="opacity:0.41999996;fill:none;stroke:url(#linearGradient3910);stroke-width:1;stroke-miterlimit:4;stroke-opacity:1;stroke-dasharray:none" />
      <g
         transform="translate(1.2575107,0.10324712)"
         id="g3111">
        <path
           inkscape:connector-curvature="0"
           style="opacity:0.4;fill:url(#radialGradient3015);fill-opacity:1;stroke:none"
           id="path3435"
           d="M 46.99983,45.984782 C 46.99983,47.097757 42.522714,48 36.999915,48 31.477114,48 27,47.097757 27,45.984782 c 0,-1.112974 4.477114,-2.015217 9.999915,-2.015217 5.522799,0 9.999915,0.902243 9.999915,2.015217 z" />
        <path
           inkscape:connector-curvature="0"
           style="fill:url(#linearGradient3101);fill-opacity:1;fill-rule:evenodd;stroke:#a2824e;stroke-width:0.99999946;stroke-linecap:round;stroke-linejoin:round;stroke-miterlimit:4;stroke-opacity:1;stroke-dashoffset:0"
           id="rect1314"
           d="m 29.585663,32.039111 c 4.8977,-0.724037 9.847514,-0.611633 14.828432,0 0.601506,0 1.085748,0.523475 1.085748,1.173711 l 0,11.697917 c 0,0.650237 -0.515495,1.079658 -1.085748,1.173711 -5.164043,0.60626 -9.591863,0.601474 -14.828432,0 -0.695263,-0.219457 -1.085748,-0.523474 -1.085748,-1.173711 l 0,-11.697917 c 0,-0.650236 0.484243,-1.173711 1.085748,-1.173711 z" />
        <path
           inkscape:connector-curvature="0"
           style="opacity:0.37999998;fill:none;stroke:url(#linearGradient3098);stroke-width:1.00000036;stroke-linecap:round;stroke-linejoin:round;stroke-miterlimit:4;stroke-opacity:0.60109289;stroke-dashoffset:0"
           id="rect6903"
           d="m 30.085586,33.537353 13.828656,0 c 0.324462,0 0.585672,0.266353 0.585672,0.597203 l 0,10.395845 c 0,0.33085 -0.231917,0.483593 -0.585672,0.597203 -4.521671,0.546964 -8.984758,0.545698 -13.828656,0 -0.324462,-0.11361 -0.585671,-0.266353 -0.585671,-0.597203 l 0,-10.395845 c 0,-0.33085 0.261209,-0.597203 0.585671,-0.597203 z" />
        <path
           inkscape:connector-curvature="0"
           style="fill:url(#linearGradient3095);fill-opacity:1;fill-rule:evenodd;stroke:none;stroke-width:2;marker:none;visibility:visible;display:inline;overflow:visible"
           id="rect1460"
           d="m 29.779344,32.575872 c 4.813713,-0.786353 9.627427,-0.646293 14.441141,0 0.431803,0 0.77943,0.386003 0.77943,0.865475 l 0,1.498987 c 0,0.479473 -0.347627,0.865476 -0.77943,0.865476 -5.023394,0.371496 -9.645358,0.238912 -14.441141,0 -0.431804,0 -0.779429,-0.386003 -0.779429,-0.865476 l 0,-1.498987 c 0,-0.479472 0.347625,-0.865475 0.779429,-0.865475 z" />
        <path
           inkscape:connector-curvature="0"
           style="opacity:0.6;fill:none;stroke:url(#linearGradient3092);stroke-width:1.00000012;stroke-linecap:round;stroke-linejoin:round;stroke-miterlimit:4;stroke-opacity:1;stroke-dashoffset:0;marker:none;visibility:visible;display:inline;overflow:visible"
           id="rect1593"
           d="m 30.045458,34.537351 13.908915,0 c 0.30223,0 0.545542,0.129295 0.545542,0.289899 l 0,0.174986 c 0,0.160603 -0.243312,0.289898 -0.545542,0.289898 -4.593039,0.317179 -9.237961,0.33659 -13.908915,0 -0.302231,0 -0.545543,-0.129295 -0.545543,-0.289898 l 0,-0.174986 c 0,-0.160604 0.243312,-0.289899 0.545543,-0.289899 z" />
        <rect
           style="opacity:0.2;fill:#ffffff;fill-opacity:1;fill-rule:evenodd;stroke:none;stroke-width:1;marker:none;visibility:visible;display:inline;overflow:visible;filter:url(#filter5957-5);enable-background:accumulate"
           id="rect5887"
           transform="matrix(0.923405,0,0,0.5777374,17.7729,21.680884)"
           y="23.226137"
           x="14.594036"
           ry="1.6077254"
           rx="1.6077254"
           height="16.970562"
           width="2.8284271" />
        <path
           inkscape:connector-curvature="0"
           style="opacity:0.3;fill:url(#radialGradient3088);fill-opacity:1;fill-rule:evenodd;stroke:none;stroke-width:1;marker:none;visibility:visible;display:inline;overflow:visible;enable-background:accumulate"
           id="path6073"
           d="m 34.999915,33.287353 c 0,0.690356 -1.119291,1.249999 -2.5,1.249999 -1.380712,0 -2.5,-0.559643 -2.5,-1.249999 0,-0.690357 1.119288,-1.250001 2.5,-1.250001 1.380709,0 2.5,0.559644 2.5,1.250001 z" />
        <path
           inkscape:connector-curvature="0"
           style="opacity:0.3;fill:url(#radialGradient3085);fill-opacity:1;fill-rule:evenodd;stroke:none;stroke-width:1;marker:none;visibility:visible;display:inline;overflow:visible;enable-background:accumulate"
           id="path6083"
           d="m 43.999915,33.287353 c 0,0.690356 -1.119288,1.249999 -2.500001,1.249999 -1.380712,0 -2.499999,-0.559643 -2.499999,-1.249999 0,-0.690357 1.119287,-1.250001 2.499999,-1.250001 1.380713,0 2.500001,0.559644 2.500001,1.250001 z" />
        <path
           inkscape:connector-curvature="0"
           style="fill:url(#linearGradient3082);fill-opacity:1;fill-rule:evenodd;stroke:#888a85;stroke-width:0.9999994;stroke-linecap:butt;stroke-linejoin:miter;stroke-miterlimit:4;stroke-opacity:1;stroke-dasharray:none"
           id="path2086"
           d="m 31.502148,32.67684 0,-2.704121 c 0,-3.710962 2.152214,-5.473926 5.477269,-5.427583 3.343147,0.04634 5.518265,1.672963 5.518265,5.427583 l 0,2.822003 c 0,0.921466 -2.247715,1.038745 -2.247715,0 l 0,-1.878954 c 0,-0.943049 0.232705,-3.994687 -3.247128,-3.994687 -3.451139,0 -3.19968,3.070445 -3.186298,3.990928 l 0,1.780712 c 0,1.110261 -2.314393,1.10554 -2.314393,-0.01588 z" />
        <path
           inkscape:connector-curvature="0"
           style="opacity:0.18235294;fill:url(#linearGradient3074);fill-opacity:1;fill-rule:evenodd;stroke:none;filter:url(#filter6251)"
           id="rect1345"
           transform="matrix(0.4093677,0,0,0.4715247,27.146394,23.135612)"
           d="m 34.687087,10.837069 1.263948,0.125 c 0.927239,2.822733 0.736052,9.510413 0.736052,9.510413 -0.0625,1.125 -2.03125,0.53125 -2,0 l 0,-9.635413 z" />
        <path
           inkscape:connector-curvature="0"
           style="opacity:0.14117647;fill:url(#linearGradient3076);fill-opacity:1;fill-rule:evenodd;stroke:none;filter:url(#filter6251)"
           id="path6332"
           transform="matrix(-0.4093677,0,0,0.4715247,39.042119,22.84387)"
           d="m 12.926606,11.544175 0.371719,0.169195 c 1.720331,1.054966 2.173532,9.37783 2.173532,9.37783 -0.0625,1.125 -2.03125,0.53125 -2,0 0,0 0.37822,-6.87064 -0.545251,-9.547025 z" />
        <path
           inkscape:connector-curvature="0"
           style="opacity:0.62352941;fill:none;stroke:#ffffff;stroke-width:4.29834795;stroke-linecap:round;stroke-linejoin:miter;stroke-miterlimit:4;stroke-opacity:1;stroke-dasharray:none;stroke-dashoffset:0;marker:none;visibility:visible;display:inline;overflow:visible;filter:url(#filter5745);enable-background:accumulate"
           id="path5675"
           transform="matrix(0.459148,0,0,0.4715247,25.978223,24.264876)"
           d="m 13.876557,17.722122 0.124999,-7.5 c 0,-9.8763728 18.6875,-10.6764 18.6875,0.875 l 0,6.875" />
      </g>
    </g>
  </g>
</svg>
