<?xml version="1.0" encoding="UTF-8" standalone="no"?>
<!-- Created with Inkscape (http://www.inkscape.org/) -->

<svg
   xmlns:dc="http://purl.org/dc/elements/1.1/"
   xmlns:cc="http://creativecommons.org/ns#"
   xmlns:rdf="http://www.w3.org/1999/02/22-rdf-syntax-ns#"
   xmlns:svg="http://www.w3.org/2000/svg"
   xmlns="http://www.w3.org/2000/svg"
   xmlns:xlink="http://www.w3.org/1999/xlink"
   xmlns:sodipodi="http://sodipodi.sourceforge.net/DTD/sodipodi-0.dtd"
   xmlns:inkscape="http://www.inkscape.org/namespaces/inkscape"
   version="1.0"
   width="48"
   height="48"
   id="svg2527"
   inkscape:version="0.48.0 r9654"
   sodipodi:docname="5-system.svg">
  <metadata
     id="metadata27">
    <rdf:RDF>
      <cc:Work
         rdf:about="">
        <dc:format>image/svg+xml</dc:format>
        <dc:type
           rdf:resource="http://purl.org/dc/dcmitype/StillImage" />
      </cc:Work>
    </rdf:RDF>
  </metadata>
  <sodipodi:namedview
     pagecolor="#ffffff"
     bordercolor="#666666"
     borderopacity="1"
     objecttolerance="10"
     gridtolerance="10"
     guidetolerance="10"
     inkscape:pageopacity="0"
     inkscape:pageshadow="2"
     inkscape:window-width="1920"
     inkscape:window-height="1030"
     id="namedview25"
     showgrid="false"
     inkscape:zoom="1.578125"
     inkscape:cx="-192.43895"
     inkscape:cy="41.847443"
     inkscape:window-x="0"
     inkscape:window-y="0"
     inkscape:window-maximized="1"
     inkscape:current-layer="layer1-3" />
  <defs
     id="defs2529">
    <linearGradient
       id="linearGradient8838">
      <stop
         id="stop8840"
         style="stop-color:#000000;stop-opacity:1"
         offset="0" />
      <stop
         id="stop8842"
         style="stop-color:#000000;stop-opacity:0"
         offset="1" />
    </linearGradient>
    <radialGradient
       cx="62.625"
       cy="4.625"
       r="10.625"
       fx="62.625"
       fy="4.625"
       id="radialGradient2436"
       xlink:href="#linearGradient8838"
       gradientUnits="userSpaceOnUse"
       gradientTransform="matrix(2.1647059,0,0,0.7529402,-111.56471,36.517647)" />
    <linearGradient
       id="linearGradient3397">
      <stop
         id="stop3399"
         style="stop-color:#aaaaaa;stop-opacity:1"
         offset="0" />
      <stop
         id="stop3401"
         style="stop-color:#8c8c8c;stop-opacity:1"
         offset="1" />
    </linearGradient>
    <linearGradient
       x1="37.201294"
       y1="1"
       x2="37.201294"
       y2="45"
       id="linearGradient2517"
       xlink:href="#linearGradient3397"
       gradientUnits="userSpaceOnUse" />
    <linearGradient
       x1="63.9995"
       y1="3.1001"
       x2="63.9995"
       y2="122.8994"
       id="linearGradient3309"
       gradientUnits="userSpaceOnUse">
      <stop
         id="stop3311"
         style="stop-color:#f6f6f6;stop-opacity:1"
         offset="0" />
      <stop
         id="stop3313"
         style="stop-color:#d2d2d2;stop-opacity:1"
         offset="1" />
    </linearGradient>
    <linearGradient
       x1="20.758585"
       y1="1"
       x2="20.758585"
       y2="45.017357"
       id="linearGradient2515"
       xlink:href="#linearGradient3309"
       gradientUnits="userSpaceOnUse" />
    <linearGradient
       id="linearGradient5128">
      <stop
         id="stop5130"
         style="stop-color:#e5e5e5;stop-opacity:1"
         offset="0" />
      <stop
         id="stop5132"
         style="stop-color:#ababab;stop-opacity:1"
         offset="1" />
    </linearGradient>
    <linearGradient
       x1="86.132919"
       y1="105.105"
       x2="84.63858"
       y2="20.895"
       id="linearGradient2512"
       xlink:href="#linearGradient5128"
       gradientUnits="userSpaceOnUse"
       gradientTransform="matrix(0.3244803,0,0,0.3244803,3.2332655,2.5577454)" />
    <radialGradient
       inkscape:collect="always"
       xlink:href="#linearGradient15679"
       id="radialGradient15685"
       cx="23.3125"
       cy="40.9375"
       fx="23.3125"
       fy="40.9375"
       r="17.1875"
       gradientTransform="matrix(1,0,0,0.316364,0,27.98636)"
       gradientUnits="userSpaceOnUse" />
    <linearGradient
       inkscape:collect="always"
       id="linearGradient15679">
      <stop
         style="stop-color:#000000;stop-opacity:1;"
         offset="0"
         id="stop15681" />
      <stop
         style="stop-color:#000000;stop-opacity:0;"
         offset="1"
         id="stop15683" />
    </linearGradient>
    <radialGradient
       inkscape:collect="always"
       xlink:href="#linearGradient15653"
       id="radialGradient3207"
       gradientUnits="userSpaceOnUse"
       gradientTransform="matrix(1.616548,0,0,1.708051,-14.02647,-8.007523)"
       cx="22.75"
       cy="10.250003"
       fx="22.75"
       fy="10.250003"
       r="19.875" />
    <linearGradient
       id="linearGradient15653">
      <stop
         style="stop-color:#a4eb1a;stop-opacity:1;"
         offset="0"
         id="stop15655" />
      <stop
         style="stop-color:#d5f1b9;stop-opacity:1;"
         offset="1"
         id="stop15657" />
    </linearGradient>
    <radialGradient
       inkscape:collect="always"
       xlink:href="#linearGradient2660"
       id="radialGradient3209"
       gradientUnits="userSpaceOnUse"
       gradientTransform="matrix(4.072994,0,0,2.874492,-48.88488,-43.21542)"
       cx="17.62042"
       cy="21.610504"
       fx="17.62042"
       fy="21.610504"
       r="7.9999995" />
    <linearGradient
       id="linearGradient2660">
      <stop
         style="stop-color:#87c945;stop-opacity:0.70481926;"
         offset="0"
         id="stop2662" />
      <stop
         style="stop-color:#bccca7;stop-opacity:0.25301206;"
         offset="1"
         id="stop2664" />
    </linearGradient>
    <radialGradient
       inkscape:collect="always"
       xlink:href="#linearGradient2660-1"
       id="radialGradient3209-1"
       gradientUnits="userSpaceOnUse"
       gradientTransform="matrix(5.5328733,0,0,3.8803896,-68.659198,-54.649855)"
       cx="17.62042"
       cy="21.610504"
       fx="17.62042"
       fy="21.610504"
       r="7.9999995" />
    <linearGradient
       id="linearGradient2660-1">
      <stop
         style="stop-color:#d6ecbf;stop-opacity:0.70481926;"
         offset="0"
         id="stop2662-5" />
      <stop
         style="stop-color:#bccca7;stop-opacity:0.25301206;"
         offset="1"
         id="stop2664-9" />
    </linearGradient>
    <radialGradient
       inkscape:collect="always"
       xlink:href="#linearGradient15653-7"
       id="radialGradient3207-7"
       gradientUnits="userSpaceOnUse"
       gradientTransform="matrix(2.1959657,0,0,2.305765,-21.306522,-7.121333)"
       cx="22.75"
       cy="10.250003"
       fx="22.75"
       fy="10.250003"
       r="19.875" />
    <linearGradient
       id="linearGradient15653-7">
      <stop
         style="stop-color:#71a40e;stop-opacity:1;"
         offset="0"
         id="stop15655-6" />
      <stop
         style="stop-color:#d5f1b9;stop-opacity:1;"
         offset="1"
         id="stop15657-7" />
    </linearGradient>
    <radialGradient
       inkscape:collect="always"
       xlink:href="#linearGradient15679-6"
       id="radialGradient15685-3"
       cx="23.3125"
       cy="40.9375"
       fx="23.3125"
       fy="40.9375"
       r="17.1875"
       gradientTransform="matrix(1,0,0,0.316364,0,27.98636)"
       gradientUnits="userSpaceOnUse" />
    <linearGradient
       inkscape:collect="always"
       id="linearGradient15679-6">
      <stop
         style="stop-color:#000000;stop-opacity:1;"
         offset="0"
         id="stop15681-5" />
      <stop
         style="stop-color:#000000;stop-opacity:0;"
         offset="1"
         id="stop15683-6" />
    </linearGradient>
    <radialGradient
       r="17.1875"
       fy="40.9375"
       fx="23.3125"
       cy="40.9375"
       cx="23.3125"
       gradientTransform="matrix(1,0,0,0.316364,0,27.98636)"
       gradientUnits="userSpaceOnUse"
       id="radialGradient3881"
       xlink:href="#linearGradient15679-6"
       inkscape:collect="always" />
    <radialGradient
       inkscape:collect="always"
       xlink:href="#linearGradient15679-6"
       id="radialGradient3091"
       gradientUnits="userSpaceOnUse"
       gradientTransform="matrix(1,0,0,0.316364,0,27.98636)"
       cx="23.3125"
       cy="40.9375"
       fx="23.3125"
       fy="40.9375"
       r="17.1875" />
    <radialGradient
       inkscape:collect="always"
       xlink:href="#linearGradient15653-7"
       id="radialGradient3093"
       gradientUnits="userSpaceOnUse"
       gradientTransform="matrix(2.1959657,0,0,2.305765,-21.306522,-7.121333)"
       cx="22.75"
       cy="10.250003"
       fx="22.75"
       fy="10.250003"
       r="19.875" />
    <radialGradient
       inkscape:collect="always"
       xlink:href="#linearGradient2660-1"
       id="radialGradient3095"
       gradientUnits="userSpaceOnUse"
       gradientTransform="matrix(5.5328733,0,0,3.8803896,-68.659198,-54.649855)"
       cx="17.62042"
       cy="21.610504"
       fx="17.62042"
       fy="21.610504"
       r="7.9999995" />
    <linearGradient
       x1="17.490429"
       y1="-7.9936939e-08"
       x2="17.490429"
       y2="30.318369"
       id="linearGradient3253"
       xlink:href="#linearGradient3309"
       gradientUnits="userSpaceOnUse" />
    <linearGradient
       id="linearGradient3255">
      <stop
         id="stop3257"
         style="stop-color:#f8fccd;stop-opacity:1;"
         offset="0" />
      <stop
         id="stop3259"
         style="stop-color:#ecf4bd;stop-opacity:1;"
         offset="0.31737828" />
      <stop
         id="stop3261"
         style="stop-color:#ffffff;stop-opacity:1;"
         offset="0.79344571" />
      <stop
         id="stop3263"
         style="stop-color:#ffffff;stop-opacity:1;"
         offset="1" />
    </linearGradient>
    <linearGradient
       x1="10"
       y1="29.4849"
       x2="10"
       y2="0"
       id="linearGradient3390"
       xlink:href="#linearGradient2490"
       gradientUnits="userSpaceOnUse" />
    <linearGradient
       id="linearGradient2490">
      <stop
         id="stop2492"
         style="stop-color:#686868;stop-opacity:1;"
         offset="0" />
      <stop
         id="stop2494"
         style="stop-color:#3b450b;stop-opacity:1;"
         offset="1" />
    </linearGradient>
    <linearGradient
       x1="14"
       y1="0"
       x2="14"
       y2="19.168026"
       id="linearGradient3236"
       xlink:href="#linearGradient4222"
       gradientUnits="userSpaceOnUse" />
    <linearGradient
       id="linearGradient4222">
      <stop
         id="stop4224"
         style="stop-color:#ffffff;stop-opacity:1"
         offset="0" />
      <stop
         id="stop4226"
         style="stop-color:#ffffff;stop-opacity:0"
         offset="1" />
    </linearGradient>
    <linearGradient
       y2="19.168026"
       x2="14"
       y1="0"
       x1="14"
       gradientUnits="userSpaceOnUse"
       id="linearGradient3027"
       xlink:href="#linearGradient4222"
       inkscape:collect="always" />
  </defs>
  <g
     id="layer1">
    <path
       d="M 46.999997,40 C 46.999997,44.418278 36.702545,48 23.999997,48 C 11.297449,48 0.9999968,44.418278 0.9999968,40 C 0.9999968,35.581722 11.297449,32 23.999997,32 C 36.702545,32 46.999997,35.581722 46.999997,40 L 46.999997,40 z"
       id="path8836"
       style="opacity:0.3;fill:url(#radialGradient2436);fill-opacity:1;fill-rule:evenodd;stroke:none;stroke-width:0.99999988;stroke-linecap:butt;stroke-linejoin:round;marker:none;marker-start:none;marker-mid:none;marker-end:none;stroke-miterlimit:4;stroke-dasharray:none;stroke-dashoffset:0;stroke-opacity:1;visibility:visible;display:inline;overflow:visible" />
    <path
       d="M 21.03125,1.5 C 20.18512,1.5 19.5,2.2019069 19.5,3.0625 L 19.5,6.09375 C 17.987058,6.4968555 16.541437,7.105736 15.21875,7.875 L 13.0625,5.71875 C 12.758234,5.4144843 12.393747,5.2533367 12,5.25 C 11.606253,5.2466633 11.205402,5.3883479 10.90625,5.6875 L 6.6875,9.90625 C 6.0891956,10.504554 6.1102186,11.453968 6.71875,12.0625 L 8.875,14.21875 C 8.105736,15.541437 7.4968555,16.987058 7.09375,18.5 L 4.0625,18.5 C 3.2019067,18.5 2.5,19.185119 2.5,20.03125 L 2.5,25.96875 C 2.5,26.81488 3.201907,27.5 4.0625,27.5 L 7.09375,27.5 C 7.4968555,29.012942 8.105736,30.458563 8.875,31.78125 L 6.71875,33.9375 C 6.1102187,34.546031 6.0891959,35.495445 6.6875,36.09375 L 10.90625,40.3125 C 11.504554,40.910804 12.453968,40.889779 13.0625,40.28125 L 15.21875,38.125 C 16.541437,38.894264 17.987058,39.503144 19.5,39.90625 L 19.5,42.9375 C 19.5,43.798093 20.185119,44.5 21.03125,44.5 L 26.96875,44.5 C 27.81488,44.5 28.5,43.798093 28.5,42.9375 L 28.5,39.90625 C 30.012942,39.503144 31.458563,38.894264 32.78125,38.125 L 34.9375,40.28125 C 35.546031,40.889781 36.495446,40.910805 37.09375,40.3125 L 41.3125,36.09375 C 41.910804,35.495446 41.889781,34.546031 41.28125,33.9375 L 39.125,31.78125 C 39.894264,30.458563 40.503144,29.012942 40.90625,27.5 L 43.9375,27.5 C 44.798093,27.5 45.5,26.814881 45.5,25.96875 L 45.5,20.03125 C 45.5,19.18512 44.798093,18.5 43.9375,18.5 L 40.90625,18.5 C 40.503144,16.987058 39.894264,15.541437 39.125,14.21875 L 41.28125,12.0625 C 41.889781,11.453969 41.910805,10.504554 41.3125,9.90625 L 37.09375,5.6875 C 36.495446,5.0891956 35.54603,5.1102187 34.9375,5.71875 L 32.78125,7.875 C 31.458563,7.105736 30.012942,6.4968555 28.5,6.09375 L 28.5,3.0625 C 28.5,2.2019067 27.814881,1.5 26.96875,1.5 L 21.03125,1.5 z M 24,16.5 C 27.588,16.5 30.5,19.412 30.5,23 C 30.5,26.588 27.588,29.5 24,29.5 C 20.412,29.5 17.5,26.588 17.5,23 C 17.5,19.412 20.412,16.5 24,16.5 z"
       id="rect3267"
       style="fill:url(#linearGradient2515);fill-opacity:1;fill-rule:nonzero;stroke:url(#linearGradient2517);stroke-width:1;stroke-linecap:butt;stroke-linejoin:round;marker:none;marker-start:none;marker-mid:none;marker-end:none;stroke-miterlimit:4;stroke-dasharray:none;stroke-dashoffset:0;stroke-opacity:1;visibility:visible;display:block;overflow:visible;enable-background:accumulate" />
    <path
       d="M 24,9.5 C 16.556099,9.5 10.5,15.556099 10.5,23 C 10.5,30.4439 16.556099,36.5 24,36.5 C 31.443901,36.5 37.5,30.4439 37.5,23 C 37.5,15.556099 31.443901,9.5 24,9.5 z"
       id="path28"
       style="fill:none;stroke:url(#linearGradient2512);stroke-width:1;stroke-miterlimit:4;stroke-dasharray:none" />
    <path
       d="M 24,10 C 16.831679,9.9999995 11,15.83168 11,23 C 11,30.16832 16.831679,36 24,36 C 31.168319,35.999999 37,30.16832 37,23 C 37,15.83168 31.168319,10 24,10 z M 24,16 C 27.864,16 31,19.136 31,23 C 31,26.864 27.864,30 24,30 C 20.136,30 17,26.864 17,23 C 17,19.136 20.136,16 24,16 z"
       id="path3315"
       style="opacity:0.05;fill:#000000;fill-opacity:1;stroke:none;stroke-width:0.99956679;stroke-miterlimit:4;stroke-dasharray:none" />
  </g>
  <g
     transform="matrix(0.74077408,0,0,0.74077408,14.423971,13.480648)"
     id="g3050">
    <path
       transform="translate(-0.125151,0.625)"
       d="m 40.5,40.9375 c 0,3.003048 -7.695106,5.4375 -17.1875,5.4375 -9.492394,0 -17.1875,-2.434452 -17.1875,-5.4375 0,-3.003048 7.695106,-5.4375 17.1875,-5.4375 9.492394,0 17.1875,2.434452 17.1875,5.4375 z"
       sodipodi:ry="5.4375"
       sodipodi:rx="17.1875"
       sodipodi:cy="40.9375"
       sodipodi:cx="23.3125"
       id="path15677"
       style="opacity:0.36931817;fill:url(#radialGradient15685);fill-opacity:1;fill-rule:nonzero;stroke:none;stroke-width:1.00000024;marker:none;visibility:visible;display:block;overflow:visible"
       sodipodi:type="arc" />
    <g
       transform="translate(-1.5095767e-4,0)"
       id="g3215">
      <g
         id="g3085"
         transform="matrix(0.71557155,0,0,0.71557155,3.7067557,-2.0542129)">
        <path
           sodipodi:nodetypes="ccccc"
           id="path15651"
           d="M 28.991309,7.738154 C 18.937621,15.266206 3.1811573,19.887607 3.1811573,19.887607 7.2564443,54.648543 29.500719,63.085663 29.500719,63.085663 c 0,0 21.904669,-8.774605 26.319563,-43.704283 0,0 -19.018007,-6.918439 -26.828973,-11.643226 z"
           style="fill:url(#radialGradient3093);fill-opacity:1;fill-rule:nonzero;stroke:#888a85;stroke-width:1.34993935;stroke-linecap:round;stroke-linejoin:round;stroke-miterlimit:4;stroke-opacity:1;stroke-dasharray:none;stroke-dashoffset:0;marker:none;visibility:visible;display:block;overflow:visible"
           inkscape:r_cx="true"
           inkscape:r_cy="true"
           inkscape:connector-curvature="0" />
        <path
           inkscape:connector-curvature="0"
           style="fill:none;stroke:#ffffff;stroke-width:1.34993958;stroke-linecap:round;stroke-linejoin:round;stroke-miterlimit:4;stroke-opacity:1;stroke-dasharray:none;stroke-dashoffset:0;marker:none;visibility:visible;display:block;overflow:visible"
           d="M 29.119774,9.382218 C 19.698393,16.436809 4.9329003,20.767555 4.9329003,20.767555 8.7518803,53.342271 29.54375,61.248756 29.54375,61.248756 c 0,0 20.580414,-8.222743 24.717642,-40.955589 0,0 -17.821907,-6.483318 -25.141618,-10.910949 z"
           id="path15665"
           sodipodi:nodetypes="ccccc"
           inkscape:r_cx="true"
           inkscape:r_cy="true" />
        <path
           inkscape:r_cy="true"
           inkscape:r_cx="true"
           sodipodi:nodetypes="cccc"
           id="path15667"
           d="m 28.832359,13.137911 0,44.547995 c 0,0 -16.733749,-7.099903 -21.7348637,-35.098421 7.1317517,-1.181196 21.7348637,-9.449574 21.7348637,-9.449574 z"
           style="fill:url(#radialGradient3095);fill-opacity:1;fill-rule:nonzero;stroke:none;stroke-width:1.00000024;marker:none;visibility:visible;display:block;overflow:visible"
           inkscape:connector-curvature="0" />
      </g>
    </g>
  </g>
  <g
     transform="matrix(0.45332629,0,0,0.45332629,27.737799,24.861412)"
     id="layer1-3">
    <path
       inkscape:connector-curvature="0"
       d="m 19.197367,0.50609523 c -0.36407,-0.0362622 -0.726026,0.13873952 -0.913085,0.4747136 L 10.314316,15.292551 5.1901428,11.293824 c -0.45644,-0.244782 -1.025919,-0.08731 -1.275331,0.360657 l -2.297896,2.895431 c -0.249407,0.44796 -0.081622,1.006703 0.374813,1.251482 0,0 9.3560982,7.583881 9.3676432,7.589491 0.106976,0.05737 0.218846,0.08624 0.332564,0.100342 0.371477,0.04607 0.751638,-0.125222 0.94259,-0.468194 L 23.383083,3.7218718 C 23.632492,3.2739074 23.464709,2.7151681 23.008272,2.4703886 L 19.559439,0.61295466 C 19.445328,0.55175893 19.318725,0.51818277 19.197367,0.50609523 z"
       id="path1542"
       style="fill:url(#linearGradient3253);fill-opacity:1.0;fill-rule:nonzero;stroke:url(#linearGradient3390);stroke-width:1.00278974000000010;stroke-linecap:round;stroke-linejoin:round;stroke-miterlimit:4;stroke-opacity:1;stroke-dasharray:none;stroke-dashoffset:0;marker:none;visibility:visible;display:inline;overflow:visible" />
    <path
       inkscape:connector-curvature="0"
       d="m 19.125,1.53125 c -2.645833,4.75 -5.291667,9.5 -7.9375,14.25 C 10.709917,16.651798 9.6978243,16.239286 9.1633475,15.68239 7.6922316,14.527843 6.2211158,13.373297 4.75,12.21875 c -0.7444535,0.903063 -1.4558261,1.835565 -2.1875,2.75 3.0766146,2.493861 6.1664018,4.975248 9.21875,7.5 C 15.333333,16.083333 18.885417,9.6979167 22.4375,3.3125 21.333333,2.71875 20.229167,2.125 19.125,1.53125 z"
       id="path3231"
       style="opacity:0.4;fill:none;stroke:url(#linearGradient3027);stroke-width:1.00278974;stroke-linecap:round;stroke-linejoin:round;stroke-miterlimit:4;stroke-opacity:1;stroke-dasharray:none;stroke-dashoffset:0;marker:none;visibility:visible;display:inline;overflow:visible" />
  </g>
</svg>
